<?xml version="1.0" standalone="no"?><!DOCTYPE svg PUBLIC "-//W3C//DTD SVG 1.1//EN" "http://www.w3.org/Graphics/SVG/1.1/DTD/svg11.dtd"><svg t="1595484898177" class="icon" viewBox="0 0 1108 1024" version="1.1" xmlns="http://www.w3.org/2000/svg" p-id="2079" xmlns:xlink="http://www.w3.org/1999/xlink" width="17.3125" height="16"><defs><style type="text/css"></style></defs><path d="M551.037568 78.075135C289.294723 78.075135 78.075135 289.294723 78.075135 551.037568S289.294723 1024 551.037568 1024c261.742845 0 472.962432-211.219588 472.962432-472.962432S812.780412 78.075135 551.037568 78.075135z m0 881.660109C326.042041 959.735244 142.339892 776.067534 142.339892 551.037568S326.007601 142.339892 551.037568 142.339892c224.995527 0 408.697676 183.667709 408.697676 408.697676S776.067534 959.735244 551.037568 959.735244zM564.813507 688.79696c-18.356439 0-36.747318 4.5805-50.523257 18.356439-13.775939 9.195439-18.356439 27.551878-18.356439 41.327817 0 18.356439 4.5805 32.132378 18.356439 41.327818 13.775939 13.775939 27.551878 18.356439 50.523257 18.356439 18.356439 0 36.747318-4.5805 45.908317-18.356439 13.775939-9.195439 18.356439-27.551878 18.356439-41.327818 0-18.356439-4.5805-32.132378-18.356439-41.327817S583.169946 688.79696 564.813507 688.79696z m45.908317-41.327818l18.356439-353.593919h-137.759392l18.356439 353.593919h101.012074z" p-id="2080" fill="#424242"></path></svg>