<?xml version="1.0" standalone="no"?><!DOCTYPE svg PUBLIC "-//W3C//DTD SVG 1.1//EN" "http://www.w3.org/Graphics/SVG/1.1/DTD/svg11.dtd"><svg t="1595083665768" class="icon" viewBox="0 0 1484 1024" version="1.1" xmlns="http://www.w3.org/2000/svg" p-id="5103" xmlns:xlink="http://www.w3.org/1999/xlink" width="289.84375" height="200"><defs><style type="text/css"></style></defs><path d="M1422.580158 146.28866H61.847875C20.613668 146.28866 0 121.908934 0 73.146048 0 24.383161 20.613668 0.003436 61.847875 0.003436H1422.580158c41.230771 0 61.851311 24.379725 61.851311 73.142612 0 48.762887-20.62054 73.142612-61.851311 73.142612zM61.847875 438.862543H1422.580158c41.230771 0 61.851311 24.379725 61.851311 73.139175 0 48.762887-20.62054 73.142612-61.851311 73.142612H61.847875c-41.234207 0-61.847875-24.379725-61.847875-73.142612 0-48.75945 20.613668-73.139176 61.847875-73.139175z m0 438.852234H927.769668c41.230771 0 61.851311 24.379725 61.851312 73.142611 0 48.762887-20.62054 73.142612-61.851312 73.142612H61.847875c-41.234207 0-61.847875-24.379725-61.847875-73.142612 0-48.762887 20.613668-73.142612 61.847875-73.142611z" p-id="5104" fill="#636363"></path></svg>